<svg xmlns="http://www.w3.org/2000/svg" width="56" height="56" id="briefcase-medium" data-supported-dps="56x56">
  <path fill="#9BDAF3" d="M13 27.5c-4.136 0-7.5-3.364-7.5-7.5v-8a.5.5 0 01.5-.5h44a.5.5 0 01.5.5v8c0 4.136-3.364 7.5-7.5 7.5H13z"/>
  <path fill="#FFF" d="M45 43H11a4 4 0 01-4-4V27h42v12a4 4 0 01-4 4z"/>
  <path fill="#005E93" d="M37 10V4H19v6h3V7h12v3zM50 10H6a2 2 0 00-2 2v28a6 6 0 006 6h36a6 6 0 006-6V12a2 2 0 00-2-2zm-1 30c0 1.654-1.346 3-3 3H10c-1.654 0-3-1.346-3-3V26.695A8.955 8.955 0 0013 29h3v2h3v-2h18v2h3v-2h3a8.955 8.955 0 006-2.305V40zm0-20c0 3.308-2.692 6-6 6h-3v-3h-3v3H19v-3h-3v3h-3c-3.308 0-6-2.692-6-6v-7h42v7z"/>
  <path fill="none" d="M0 0h56v56H0z"/>
</svg>
